<svg version="1" xmlns="http://www.w3.org/2000/svg" width="341.333" height="341.333" viewBox="0 0 256.000000 256.000000"><path d="M126 5.6c0 2.3-5.1 19.7-6.2 21.1-.5.7-.9 2.2-.8 3.5.4 4.9.1 6-1.8 5.4-1.2-.4-2.7.3-4.2 1.9-1.3 1.4-1.8 2.5-1.2 2.5 2.7 0 .8 3.9-5.4 11.8-3.6 4.5-6.4 8.8-6.1 9.5.3.8-2.5 2.5-7.7 4.6C80.4 71 56 81.5 51.8 83.6L48 85.4l.1 9.5c.1 5.3.4 10.6.7 11.9 1 3.2 7 9.1 11.2 10.8 10.6 4.5 39 10 66.5 12.9 18.3 2 36.6 5.1 50.3 8.6 4 1.1 7.4 1.9 7.7 1.9.3 0 .5-9 .5-19.9v-20l-5.2-1.9c-2.9-1.1-7-2.5-9-3.1-4.5-1.5-7.3-4.8-5.7-6.7.8-1 .1-1.7-2.8-2.8-2.1-.9-4.4-2-5.2-2.4-1.7-1-2.9-3.6-1.4-3.1.6.2 8.3 3.3 17.1 6.9l16.2 6.5v48.1l3.8 1.3c2 .7 5.8 2.6 8.5 4.2 2.6 1.6 4.9 2.9 5 2.9.2 0 .3-14.8.3-32.9l.1-32.8L180.4 74c-25-10.8-26.2-11.4-25.2-13.5.8-1.8.5-2.7-1.9-5.1-1.5-1.7-3.5-3.9-4.3-5-.8-1-2.8-3.4-4.3-5.3-1.5-1.8-2.5-4.1-2.3-5 .7-2.1-1.9-5.5-3.7-4.8-1.8.7-4.2-3.6-3.3-5.9.4-.9 0-2.4-.7-3.3-1.3-1.5-6-16.3-6-18.9 0-.6-.4-1.2-.9-1.2s-.6-.5-.3-1c.3-.6.1-1-.4-1-.6 0-1.1.7-1.1 1.6zM70.8 105c.1 9-.1 13-.9 13-1.6 0-7.7-6.8-8.7-9.9-1.8-5.2.5-11 5.6-13.9 2-1.2 3.7-2.2 3.8-2.2 0 0 .1 5.8.2 13zM48 160.1l.1 38.4 31 22c17 12.1 34.8 24.8 39.5 28.3l8.5 6.3 6.2-4.9c3.4-2.7 18.1-13.8 32.7-24.7 14.6-11 28.4-21.9 30.8-24.4 14-15 10.8-28.1-9-37-9.5-4.2-22.8-7.1-54.3-11.6-13.7-2-40.2-8.4-52.9-12.8l-9.6-3.4v50.4l28 18.7 28.1 18.7 27.9-19.6c15.3-10.8 28.1-20.4 28.4-21.3.2-.9.4-4.1.4-7 0-2.9.2-5.6.6-5.9.4-.4 1.8.6 3.1 2.2 3 3.7 3.2 8.6.5 12.9-1.2 2.1-12.4 10.6-30.2 23.2-15.6 11-28.8 20.4-29.5 20.7-.7.5-5.9-2.4-12.5-6.9C84 200.7 66.4 188.6 66 187.9c-.3-.4-.5-12.5-.5-26.9v-26.1l-5-2.8c-2.7-1.6-6.7-4.6-8.7-6.6l-3.8-3.7v38.3z"/></svg>