<svg width="110" height="100" xmlns="http://www.w3.org/2000/svg"><title>arrows</title><g fill="#FFF" fill-rule="evenodd"><path d="M80.006 41c-.106 0-.194.044-.273.105l-2.628 2.628c-.14.14-.14.396 0 .537l5.73 5.73-5.73 5.73c-.14.14-.14.396 0 .537l2.628 2.628c.14.15.396.15.537 0l8.63-8.623c.14-.15.14-.395 0-.544l-8.63-8.623c-.08-.06-.16-.105-.264-.105zM29 59.007c.105 0 .193-.044.272-.106l2.628-2.627c.14-.14.14-.395 0-.536l-5.748-5.73 5.748-5.73c.14-.142.14-.396 0-.537l-2.628-2.628c-.14-.15-.395-.15-.536 0l-8.63 8.622c-.14.15-.14.396 0 .545l8.63 8.62c.08.063.16.107.264.107z"/></g></svg>