<svg xmlns="http://www.w3.org/2000/svg" width="256" height="256" version="1"><path d="M30.593 5.215C16.59 5.215 5.228 16.63 5.228 30.63V225.37c0 14.003 11.362 25.417 25.365 25.417h194.814c14.054 0 25.442-11.414 25.442-25.417V30.63c0-14-11.39-25.415-25.443-25.415H30.593z" fill="#fff"/><path d="M30.593 256C13.718 256 0 242.308 0 225.356V30.644C0 13.77 13.718.052 30.593.052h194.814C242.307.052 256 13.77 256 30.644v194.712C256 242.308 242.308 256 225.407 256H30.593z" fill="#231f20"/><path d="M60.973 203.832c-20.576 0-37.244-34.01-37.244-75.99 0-41.955 16.667-75.964 37.243-75.964h132.853c20.576 0 37.244 34.01 37.244 75.964 0 41.98-16.668 75.99-37.244 75.99H60.973z" fill="#fff"/><path d="M131.492 110.11c9.86 0 17.807 7.998 17.807 17.807 0 9.835-7.947 17.833-17.808 17.833h-4.66v-35.64h4.66zm1.81 51.22c18.455 0 33.467-14.985 33.467-33.413 0-18.506-14.857-33.466-33.31-33.466H112.778v66.907h20.523M105.863 161.367h-14.65v-8.85H66.68l-5.643 8.85H39.527l48.038-66.93h18.298v66.93z" fill="#231f20"/><path d="M91.304 138.57H75.88l15.424-23.967v23.967z" fill="#fff"/><path d="M205.954 94.387h-8.23c9.292 9.24 14.65 21.896 14.65 35.044 0 11.674-4.194 22.83-11.622 31.68h7.894c6.6-9.084 10.3-20.213 10.3-31.68 0-12.914-4.71-25.337-12.992-35.043" fill="#231f20"/><path d="M189.12 94.387h-8.23c9.292 9.24 14.65 21.896 14.65 35.044 0 11.674-4.194 22.83-11.622 31.68H191.762c6.652-9.084 10.353-20.213 10.353-31.68 0-12.914-4.71-25.337-12.992-35.043" fill="#231f20"/><path d="M172.236 94.387h-8.18c9.292 9.24 14.598 21.896 14.598 35.044 0 11.674-4.193 22.83-11.57 31.68H174.927c6.652-9.084 10.3-20.213 10.3-31.68 0-12.914-4.657-25.337-12.99-35.043" fill="#231f20"/></svg>