<svg version="1" xmlns="http://www.w3.org/2000/svg" viewBox="0 0 91.2 87.1"><path d="M74.4 23.4c-1.8-.8-3.8-.1-4.6 1.7l-1.6 3.4C62.8 20.6 53.8 15.8 44 16c-11.8.3-22 7.6-26 18.6-.7 1.8.3 3.8 2.1 4.5.4.1.8.2 1.2.2 1.4 0 2.8-.9 3.3-2.3 3.1-8.3 10.8-13.8 19.6-14 7.4-.1 14.3 3.5 18.3 9.5h-5.1c-1.9 0-3.5 1.6-3.5 3.5s1.6 3.5 3.5 3.5h11.2c1.4 0 2.6-.8 3.2-2l4.4-9.5c.7-1.7-.1-3.8-1.8-4.6zM69.1 48.7c-1.8-.7-3.8.3-4.5 2.1-3.1 8.3-10.8 13.8-19.6 14h-.5c-7.2 0-13.9-3.6-17.8-9.5h5.1c1.9 0 3.5-1.6 3.5-3.5s-1.6-3.5-3.5-3.5H20.7c-1.4 0-2.6.8-3.2 2l-4.4 9.5c-.8 1.8-.1 3.8 1.7 4.6.5.2 1 .3 1.5.3 1.3 0 2.6-.7 3.2-2l1.6-3.4c5.2 7.7 14 12.5 23.5 12.5h.6c11.8-.3 22-7.6 26-18.6.7-1.8-.3-3.8-2.1-4.5z"/></svg>