<?xml version="1.0" standalone="no"?>
<!DOCTYPE svg PUBLIC "-//W3C//DTD SVG 20010904//EN"
 "http://www.w3.org/TR/2001/REC-SVG-20010904/DTD/svg10.dtd">
<svg version="1.0" xmlns="http://www.w3.org/2000/svg"
 width="256.000000pt" height="256.000000pt" viewBox="0 0 256.000000 256.000000"
 preserveAspectRatio="xMidYMid meet">
<metadata>
Created by potrace 1.11, written by Peter Selinger 2001-2013
</metadata>
<g transform="translate(0.000000,256.000000) scale(0.100000,-0.100000)"
fill="#000000" stroke="none">
<path d="M1260 2504 c0 -23 -51 -197 -62 -211 -5 -7 -9 -22 -8 -35 4 -49 1
-60 -18 -54 -12 4 -27 -3 -42 -19 -13 -14 -18 -25 -12 -25 27 0 8 -39 -54
-118 -36 -45 -64 -88 -61 -95 3 -8 -25 -25 -77 -46 -122 -51 -366 -156 -408
-177 l-38 -18 1 -95 c1 -53 4 -106 7 -119 10 -32 70 -91 112 -108 106 -45 390
-100 665 -129 183 -20 366 -51 503 -86 40 -11 74 -19 77 -19 3 0 5 90 5 199
l0 200 -52 19 c-29 11 -70 25 -90 31 -45 15 -73 48 -57 67 8 10 1 17 -28 28
-21 9 -44 20 -52 24 -17 10 -29 36 -14 31 6 -2 83 -33 171 -69 l162 -65 0
-240 0 -241 38 -13 c20 -7 58 -26 85 -42 26 -16 49 -29 50 -29 2 0 3 148 3
329 l1 328 -263 113 c-250 108 -262 114 -252 135 8 18 5 27 -19 51 -15 17 -35
39 -43 50 -8 10 -28 34 -43 53 -15 18 -25 41 -23 50 7 21 -19 55 -37 48 -18
-7 -42 36 -33 59 4 9 0 24 -7 33 -13 15 -60 163 -60 189 0 6 -4 12 -9 12 -5 0
-6 5 -3 10 3 6 1 10 -4 10 -6 0 -11 -7 -11 -16z m-552 -994 c1 -90 -1 -130 -9
-130 -16 0 -77 68 -87 99 -18 52 5 110 56 139 20 12 37 22 38 22 0 0 1 -58 2
-130z"/>
<path d="M480 959 l1 -384 310 -220 c170 -121 348 -248 395 -283 l85 -63 62
49 c34 27 181 138 327 247 146 110 284 219 308 244 140 150 108 281 -90 370
-95 42 -228 71 -543 116 -137 20 -402 84 -529 128 l-96 34 0 -252 0 -252 280
-187 281 -187 279 196 c153 108 281 204 284 213 2 9 4 41 4 70 0 29 2 56 6 59
4 4 18 -6 31 -22 30 -37 32 -86 5 -129 -12 -21 -124 -106 -302 -232 -156 -110
-288 -204 -295 -207 -7 -5 -59 24 -125 69 -318 217 -494 338 -498 345 -3 4 -5
125 -5 269 l0 261 -50 28 c-27 16 -67 46 -87 66 l-38 37 0 -383z"/>
</g>
</svg>
