<?xml version="1.0" encoding="UTF-8" standalone="no"?>
<svg width="110px" height="100px" viewBox="0 0 110 100" version="1.1" xmlns="http://www.w3.org/2000/svg" xmlns:xlink="http://www.w3.org/1999/xlink" xmlns:sketch="http://www.bohemiancoding.com/sketch/ns">
    <!-- Generator: Sketch 3.4.4 (17249) - http://www.bohemiancoding.com/sketch -->
    <title>arrows</title>
    <desc>Created with Sketch.</desc>
    <defs></defs>
    <g id="Page-1" stroke="none" stroke-width="1" fill="none" fill-rule="evenodd" sketch:type="MSPage">
        <g id="arrows" sketch:type="MSArtboardGroup" fill="#FFFFFF">
            <path d="M80.0058594,41 C79.9003906,41 79.8125,41.0439453 79.7333984,41.1054688 L77.1054688,43.7333984 C76.9648438,43.8740234 76.9648438,44.1289062 77.1054688,44.2695312 L82.8359375,50 L77.1054688,55.7304688 C76.9648438,55.8710938 76.9648438,56.1259766 77.1054688,56.2666016 L79.7333984,58.8945312 C79.8740234,59.0439453 80.1289062,59.0439453 80.2695312,58.8945312 L88.9003906,50.2724609 C89.0410156,50.1230469 89.0410156,49.8769531 88.9003906,49.7275391 L80.2695312,41.1054688 C80.1904297,41.0439453 80.1113281,41 80.0058594,41 L80.0058594,41 Z" id="navigateright" sketch:type="MSShapeGroup"></path>
            <path d="M29,59.0065918 C29.1054688,59.0065918 29.1933594,58.9626465 29.2724609,58.901123 L31.9003906,56.2731934 C32.0410156,56.1325684 32.0410156,55.8776855 31.9003906,55.7370605 L26.1523438,50.0065918 L31.9003906,44.276123 C32.0410156,44.135498 32.0410156,43.8806152 31.9003906,43.7399902 L29.2724609,41.1120605 C29.1318359,40.9626465 28.8769531,40.9626465 28.7363281,41.1120605 L20.1054688,49.7341309 C19.9648438,49.8835449 19.9648438,50.1296387 20.1054688,50.2790527 L28.7363281,58.901123 C28.8154297,58.9626465 28.8945312,59.0065918 29,59.0065918 L29,59.0065918 Z" id="navigateleft" sketch:type="MSShapeGroup"></path>
        </g>
    </g>
</svg>